<svg xmlns="http://www.w3.org/2000/svg" aria-hidden="true" style="position:absolute;width:0;height:0;overflow:hidden"><defs><symbol id="icon-catalog-icon" viewBox="0 0 48 32"><path d="M2.667 0a1.778 1.778 0 1 1 0 3.556 1.778 1.778 0 0 1 0-3.556zM13.333 0h32a1.778 1.778 0 1 1 0 3.556h-32a1.778 1.778 0 1 1 0-3.556zM2.667 14.222a1.778 1.778 0 1 1 0 3.556 1.778 1.778 0 0 1 0-3.556zM13.333 14.222h32a1.778 1.778 0 1 1 0 3.556h-32a1.778 1.778 0 1 1 0-3.556zM2.667 28.444a1.778 1.778 0 1 1 0 3.556 1.778 1.778 0 0 1 0-3.556zM13.333 28.444h32a1.778 1.778 0 1 1 0 3.556h-32a1.778 1.778 0 1 1 0-3.556z"/></symbol><symbol id="icon-icon-basket" viewBox="0 0 35 32"><path stroke-linecap="round" stroke-linejoin="round" stroke-width="2.783" d="M13.217 30.609a1.391 1.391 0 1 0 0-2.783 1.391 1.391 0 0 0 0 2.783zM27.13 30.609a1.391 1.391 0 1 0 0-2.783 1.391 1.391 0 0 0 0 2.783zM2.087 1.391h5.565l3.729 19.871c.127.683.476 1.297.984 1.734s1.145.669 1.798.655h13.523c.653.013 1.289-.219 1.798-.655s.857-1.051.984-1.734l2.226-12.451H9.042"/></symbol><symbol id="icon--icon-_search" viewBox="0 0 32 32"><path stroke-linecap="round" stroke-linejoin="round" stroke-width="3.556" d="M14.42 27.062c6.982 0 12.642-5.66 12.642-12.642S21.402 1.778 14.42 1.778c-6.982 0-12.642 5.66-12.642 12.642s5.66 12.642 12.642 12.642zM30.222 30.222l-6.874-6.874"/></symbol><symbol id="icon--icon-profil" viewBox="0 0 29 32"><path stroke-linecap="round" stroke-linejoin="round" stroke-width="2.667" d="M28 30.667v-3.111c0-1.65-.702-3.233-1.953-4.4s-2.946-1.822-4.714-1.822H8c-1.768 0-3.464.656-4.714 1.822s-1.953 2.75-1.953 4.4v3.111M14 14.667a6.667 6.667 0 1 0 0-13.334 6.667 6.667 0 0 0 0 13.334z"/></symbol></defs></svg>